ply
format ascii 1.0
element vertex 773
property double x
property double y
property double z
element face 611
property list uchar int vertex_indices
end_header
-21 -38 5
-21 -38 13
-20 -50 5
-20 -50 13
-1 -50 5
-1 -50 13
-1 -38 5
-1 -38 13
51 -30 5
51 -30 11
50 -48 5
50 -48 11
61 -49 5
61 -49 11
61 -41 5
61 -41 11
58 -38 5
58 -38 11
58 -30 5
58 -30 11
50.3323 -42.0185 11
50.3323 -42.0185 12
50 -48 12
61 -49 12
61 -41 12
50.3323 -42.0185 13
51 -47 12
51 -47 13
61 -48 12
61 -48 13
61 -42 12
61 -42 13
-63 -28 5
-63 -28 6
-63 -54 5
-63 -54 6
-55 -53 5
-55 -53 6
-54 -45 5
-54 -45 6
-59 -46 5
-59 -46 6
-62 -43 5
-62 -43 6
-63 -28 7
-63 -54 7
-55 -53 7
-54.1231 -45.9846 6
-54.1231 -45.9846 7
-59 -46 7
-62 -43 7
-63 -28 8
-63 -54 8
-57 -54 7
-57 -54 8
-55 -53 8
-54.1231 -45.9846 8
-59 -46 8
-62 -43 8
-63 -28 9
-63 -54 9
-57 -54 9
-55 -53 9
-54.1231 -45.9846 9
-59 -46 9
-61 -44 8
-61 -44 9
-63 -28 10
-63 -54 10
-57 -54 10
-55 -53 10
-54.1231 -45.9846 10
-59 -46 10
-61 -44 10
-63 -29 10
-63 -29 11
-63 -54 11
-57 -54 11
-55 -53 11
-54.1231 -45.9846 11
-59 -46 11
-61 -44 11
-63 -31 11
-63 -31 12
-63 -53 11
-63 -53 12
-55 -53 12
-54.1231 -45.9846 12
-58 -47 11
-58 -47 12
-61 -46 11
-61 -46 12
-1 -7 5
-1 -7 13
-7 -4 5
-7 -4 13
-20 -6 5
-20 -6 13
-21 -19 5
-21 -19 13
-1 -19 5
-1 -19 13
-11 -8 13
-11 -8 14
-11 -10 13
-11 -10 14
-9 -10 13
-9 -10 14
-9 -8 13
-9 -8 14
-42 3 5
-42 3 13
-46 -14 5
-46 -14 13
-45 -31 5
-45 -31 13
-43 -38 5
-43 -38 13
-44 -51 5
-44 -51 13
-40 -53 5
-40 -53 13
-34 -53 5
-34 -53 13
-32 -44 5
-32 -44 13
-34 -12 5
-34 -12 13
-30 0 5
-30 0 13
-34 3 5
-34 3 13
-34 -37 13
-34 -37 14
-39 -38 13
-39 -38 14
-42 -41 13
-42 -41 14
-41 -47 13
-41 -47 14
-34 -48 13
-34 -48 14
-38 -29 13
-38 -29 14
-39 -32 13
-39 -32 14
-36 -32 13
-36 -32 14
-36 -29 13
-36 -29 14
-39 -20 13
-39 -20 14
-40 -23 13
-40 -23 14
-37 -23 13
-37 -23 14
-37 -20 13
-37 -20 14
-38 -10 13
-38 -10 14
-39 -13 13
-39 -13 14
-38 -15 13
-38 -15 14
-36 -15 13
-36 -15 14
-36 -10 13
-36 -10 14
-38 -3 13
-38 -3 14
-37 -5 13
-37 -5 14
-34 -5 13
-34 -5 14
-34 -2 13
-34 -2 14
17 21 5
17 21 9
16 34 5
16 34 9
9 26 5
9 26 9
34 -49 5
34 -49 9
31 -56 5
31 -56 9
33 -55 5
33 -55 9
36 -47 5
36 -47 9
33 -43 5
33 -43 9
31 -45 5
31 -45 9
15 -54 5
15 -54 9
17 -56 5
17 -56 9
15 -48 5
15 -48 9
33 -61 5
33 -61 9
33 -58 5
33 -58 9
15 -61 5
15 -61 9
15 -58 5
15 -58 9
41 -47 5
41 -47 9
40 2 5
40 2 9
42 7 5
42 7 9
34 21 5
34 21 9
29 27 5
29 27 9
42 26 5
42 26 9
35 34 5
35 34 9
24 28 5
24 28 9
22 36 5
22 36 9
30 36 5
30 36 9
16 -43 5
16 -43 9
9 -45 5
9 -45 9
17 -45 9
17 -45 18
17 -61 9
17 -61 18
32 -61 9
32 -61 18
32 -46 9
32 -46 18
18.9911 -45.1327 18
18.9911 -45.1327 19
19 -61 18
19 -61 19
31 -61 18
31 -61 19
31 -47 18
31 -47 19
29 -45 18
29 -45 19
21.0014 -45.1061 19
21.0014 -45.1061 20
18.9933 -49 19
18.9933 -49 20
18.9989 -59 19
18.9989 -59 20
20 -61 19
20 -61 20
29 -61 19
29 -61 20
29 -47 19
29 -47 20
26.0005 -45.0398 19
26.0005 -45.0398 20
21 -49 20
21 -49 21
21 -61 20
21 -61 21
28 -61 20
28 -61 21
28 -49 20
28 -49 21
11 -29 9
11 -29 10
11 -33 9
11 -33 10
14 -33 9
14 -33 10
14 -30 9
14 -30 10
15.0708 32.9381 9
15.0708 32.9381 10
11.354 28.6903 9
11.354 28.6903 10
9 23 9
9 23 10
10 -5 9
10 -5 10
16 -5 9
16 -5 10
17 23 9
17 23 10
20 27 9
20 27 10
25 29 9
25 29 10
29 28 9
29 28 10
34 22 9
34 22 10
34 -5 9
34 -5 10
40.1428 -4.99709 9
40.1428 -4.99709 10
40 12 9
40 12 10
42 17 9
42 17 10
42 24 9
42 24 10
38.7168 29.7522 9
38.7168 29.7522 10
35 34 10
30 36 10
22 36 10
38 19 10
38 19 11
34 16 10
34 16 11
35 -4.99953 10
35 -4.99953 11
39 -4 10
39 -4 11
40 17 10
40 17 11
34 16 12
36 14 11
36 14 12
36 16 11
36 16 12
36 18 10
36 18 11
10 17 11
10 17 12
10 14 11
10 14 12
16 14 11
16 14 12
16 17 11
16 17 12
-1 38 5
-1 38 8
-60 16 5
-60 16 8
-61 14 5
-61 14 8
-58 6 5
-58 6 8
-38 12 5
-38 12 8
-19 20 5
-19 20 8
-11 20 5
-11 20 8
-5 13 5
-5 13 8
-1 13 5
-1 13 8
-51.1165 19.3125 8
-51.1165 19.3125 22
-60.6 14.8 8
-60.6 14.8 22
-58 6 22
-48 9 8
-48 9 22
-52 18 22
-52 18 23
-60 16 22
-60 16 23
-58 6 23
-48.9174 8.72477 22
-48.9174 8.72477 23
-49 15 22
-49 15 23
-56 15 23
-56 15 24
-56 10 23
-56 10 24
-51 9 23
-51 9 24
-51 14 23
-51 14 24
-55 14 24
-55 14 25
-56 12 24
-56 12 25
-52.9231 9.38461 24
-52.9231 9.38461 25
-52 13 24
-52 13 25
-31 21 8
-31 21 9
-37 22 8
-37 22 9
-45 19 8
-45 19 9
-46 13 8
-46 13 9
-43 13 8
-43 13 9
-39 16 8
-39 16 9
-32 16 8
-32 16 9
-1 38 15
-25.8946 28.7173 8
-25.8946 28.7173 15
-23 19 8
-23 19 15
-12 21 8
-12 21 15
-5 13 15
-1 13 15
-16.1332 32.3571 15
-16.1332 32.3571 22
-25.8946 28.7173 22
-23 19 22
-19 19 15
-19 19 22
-13 22 15
-13 22 22
-13 26 15
-13 26 22
-21 29 22
-21 29 23
-22 22 22
-22 22 23
-17 22 22
-17 22 23
-17 29 22
-17 29 23
-19 29 23
-19 29 24
-21.14 28.02 23
-21.14 28.02 24
-20 22 23
-20 22 24
-17 22 24
-16 27 23
-16 27 24
50 53 5
50 53 8
49 38 5
49 38 8
57 33 5
57 33 8
61 28 5
61 28 8
61 39 5
61 39 8
60 38 5
60 38 8
58 40 5
58 40 8
59 52 5
59 52 8
61 53 5
61 53 8
51 53 8
51 53 34
50 38 8
50 38 34
53.2247 35.3596 8
53.2247 35.3596 34
60 35 8
60 35 34
60 38 34
58 40 34
58.9172 51.0069 8
58.9172 51.0069 34
54 44 34
54 44 35
53.2247 35.3596 35
60 35 35
59 43 34
59 43 35
54 44 36
53.2247 35.3596 36
59.0028 35.0529 35
59.0028 35.0529 36
58 42 35
58 42 36
-48 58 5
-48 58 12
-63 56 5
-63 56 12
-63 49 5
-63 49 12
-59 49 5
-59 49 12
-55 42 5
-55 42 12
-55 39 5
-55 39 12
-57 37 5
-57 37 12
-63 35 5
-63 35 12
-63 27 5
-63 27 12
-47 33 5
-47 33 12
-45 39 5
-45 39 12
-42 41 5
-42 41 12
-43 47 5
-43 47 12
-63 57 12
-63 57 13
-63 49 13
-60 49 12
-60 49 13
-57.2154 45.8769 12
-57.2154 45.8769 13
-55 39 13
-51 34 12
-51 34 13
-47 33 13
-45 39 13
-51 55 12
-51 55 13
-54 58 12
-54 58 13
-48 41 13
-48 41 14
-52 39 13
-52 39 14
-52.3659 35.7073 13
-52.3659 35.7073 14
-48 36 13
-48 36 14
-63 56 13
-63 56 14
-63 50 13
-63 50 14
-52 49 13
-52 49 14
-55 55 13
-55 55 14
44 61 5
44 61 6
51 63 5
51 63 6
44 63 5
44 63 6
44 61 7
51 63 7
44 63 7
44 62 7
44 62 8
47 61 7
47 61 8
51 63 8
44 62 9
47 61 9
51 63 9
44 62 10
47 61 10
51 63 10
39 63 5
39 63 7
24 63 5
24 63 7
23 61 5
23 61 7
17 63 5
17 63 7
18 61 5
18 61 7
16 59 5
16 59 7
7 58 5
7 58 7
4 63 5
4 63 7
1 63 5
1 63 7
-3 58 5
-3 58 7
-8 59 5
-8 59 7
-10 56 5
-10 56 7
-14 55 5
-14 55 7
-18 51 5
-18 51 7
-20 51 5
-20 51 7
-23 55 5
-23 55 7
-23 58 5
-23 58 7
-25 58 5
-25 58 7
-25 52 5
-25 52 7
-23 51 5
-23 51 7
-24 49 5
-24 49 7
-36 50 5
-36 50 7
-39 49 5
-39 49 7
-39 45 5
-39 45 7
-36 39 5
-36 39 7
-29 40 5
-29 40 7
-6 48 5
-6 48 7
1 48 5
1 48 7
39 58 5
39 58 7
39 63 8
26 63 7
26 63 8
25 61 7
25 61 8
17 61 7
17 61 8
10 57 7
10 57 8
-3 56 7
-3 56 8
-5 59 7
-5 59 8
-8 59 8
-9 56 7
-9 56 8
-14 55 8
-14 53 7
-14 53 8
-19 49 7
-19 49 8
-24 49 8
-26 51 7
-26 51 8
-38.1 49.3 7
-38.1 49.3 8
-38 43 7
-38 43 8
-36 39 8
-6 48 8
1 48 8
11 52 7
11 52 8
20 52 7
20 52 8
28 54 7
28 54 8
30.0907 55.6554 7
30.0907 55.6554 8
39 58 8
12 56 8
12 56 9
0 57 8
0 57 9
-5 53 8
-5 53 9
-8 55 8
-8 55 9
-13.0385 55.1923 8
-13.0385 55.1923 9
-14 51 8
-14 51 9
-20 48 8
-20 48 9
-24 48 8
-24 48 9
-26 50 8
-26 50 9
-36 49 8
-36 49 9
-37 41 8
-37 41 9
-26 41 8
-26 41 9
-19 45 8
-19 45 9
-8.11009 47.367 8
-8.11009 47.367 9
-5 50 8
-5 50 9
5 49 8
5 49 9
8 52 8
8 52 9
12 53 8
12 53 9
-34.0198 49.198 9
-34.0198 49.198 10
-36.7538 42.9692 9
-36.7538 42.9692 10
-33 40 9
-33 40 10
-30 42 9
-30 42 10
-30 46 9
-30 46 10
-34 47 10
-34 47 11
-36.7538 42.9692 11
-34.7168 41.358 10
-34.7168 41.358 11
-31.8462 40.7692 10
-31.8462 40.7692 11
-31 46 10
-31 46 11
-34 46 11
-34 46 12
-34.7168 41.358 12
-31.6561 41.9444 11
-31.6561 41.9444 12
-32 45 11
-32 45 12
-4 53 9
-4 53 10
-4.0099 49.901 9
-4.0099 49.901 10
6 50 9
6 50 10
5 56 9
5 56 10
0 56 9
0 56 10
-1 53 9
-1 53 10
20 55 8
20 55 9
27.0588 53.7647 8
27.0588 53.7647 9
32 58 8
32 58 9
39 58 9
39 63 9
27 63 8
27 63 9
26 60 8
26 60 9
20 59 8
20 59 9
21.9459 59.3243 9
21.9459 59.3243 10
21.9406 54.6604 9
21.9406 54.6604 10
26 55 9
26 55 10
26 59 9
26 59 10
33 63 9
33 63 10
34 58 9
34 58 10
39 59 9
39 59 10
39 63 10
-26 63 5
-26 63 6
-33 63 5
-33 63 6
-32 56 5
-32 56 6
-29 57 5
-29 57 6
-30 59 5
-30 59 6
-27 60 5
-27 60 6
4 0 2 4 6
4 1 3 5 7
4 0 2 3 1
4 2 4 5 3
4 4 6 7 5
4 6 0 1 7
6 8 10 12 14 16 18
6 9 11 13 15 17 19
4 8 10 11 9
4 10 12 13 11
4 12 14 15 13
4 14 16 17 15
4 16 18 19 17
4 18 8 9 19
4 20 11 13 15
4 21 22 23 24
4 20 11 22 21
4 11 13 23 22
4 13 15 24 23
4 15 20 21 24
4 21 26 28 30
4 25 27 29 31
4 21 26 27 25
4 26 28 29 27
4 28 30 31 29
4 30 21 25 31
6 32 34 36 38 40 42
6 33 35 37 39 41 43
4 32 34 35 33
4 34 36 37 35
4 36 38 39 37
4 38 40 41 39
4 40 42 43 41
4 42 32 33 43
6 33 35 37 47 41 43
6 44 45 46 48 49 50
4 33 35 45 44
4 35 37 46 45
4 37 47 48 46
4 47 41 49 48
4 41 43 50 49
4 43 33 44 50
7 44 45 53 46 48 49 50
7 51 52 54 55 56 57 58
4 44 45 52 51
4 45 53 54 52
4 53 46 55 54
4 46 48 56 55
4 48 49 57 56
4 49 50 58 57
4 50 44 51 58
7 51 52 54 55 56 57 65
7 59 60 61 62 63 64 66
4 51 52 60 59
4 52 54 61 60
4 54 55 62 61
4 55 56 63 62
4 56 57 64 63
4 57 65 66 64
4 65 51 59 66
7 59 60 61 62 63 64 66
7 67 68 69 70 71 72 73
4 59 60 68 67
4 60 61 69 68
4 61 62 70 69
4 62 63 71 70
4 63 64 72 71
4 64 66 73 72
4 66 59 67 73
7 74 68 69 70 71 72 73
7 75 76 77 78 79 80 81
4 74 68 76 75
4 68 69 77 76
4 69 70 78 77
4 70 71 79 78
4 71 72 80 79
4 72 73 81 80
4 73 74 75 81
6 82 84 78 79 88 90
6 83 85 86 87 89 91
4 82 84 85 83
4 84 78 86 85
4 78 79 87 86
4 79 88 89 87
4 88 90 91 89
4 90 82 83 91
5 92 94 96 98 100
5 93 95 97 99 101
4 92 94 95 93
4 94 96 97 95
4 96 98 99 97
4 98 100 101 99
4 100 92 93 101
4 102 104 106 108
4 103 105 107 109
4 102 104 105 103
4 104 106 107 105
4 106 108 109 107
4 108 102 103 109
11 110 112 114 116 118 120 122 124 126 128 130
11 111 113 115 117 119 121 123 125 127 129 131
4 110 112 113 111
4 112 114 115 113
4 114 116 117 115
4 116 118 119 117
4 118 120 121 119
4 120 122 123 121
4 122 124 125 123
4 124 126 127 125
4 126 128 129 127
4 128 130 131 129
4 130 110 111 131
5 132 134 136 138 140
5 133 135 137 139 141
4 132 134 135 133
4 134 136 137 135
4 136 138 139 137
4 138 140 141 139
4 140 132 133 141
4 142 144 146 148
4 143 145 147 149
4 142 144 145 143
4 144 146 147 145
4 146 148 149 147
4 148 142 143 149
4 150 152 154 156
4 151 153 155 157
4 150 152 153 151
4 152 154 155 153
4 154 156 157 155
4 156 150 151 157
5 158 160 162 164 166
5 159 161 163 165 167
4 158 160 161 159
4 160 162 163 161
4 162 164 165 163
4 164 166 167 165
4 166 158 159 167
4 168 170 172 174
4 169 171 173 175
4 168 170 171 169
4 170 172 173 171
4 172 174 175 173
4 174 168 169 175
3 176 178 180
3 177 179 181
3 182 184 186
3 183 185 187
3 188 190 192
3 189 191 193
3 194 196 198
3 195 197 199
3 184 200 202
3 185 201 203
3 196 204 184
3 197 205 185
3 204 196 206
3 205 197 207
3 200 184 204
3 201 185 205
3 192 184 182
3 193 185 183
3 192 198 196
3 193 199 197
3 196 184 192
3 197 185 193
3 190 188 208
3 191 189 209
3 190 208 210
3 191 209 211
3 210 212 214
3 211 213 215
3 216 218 220
3 217 219 221
3 222 224 178
3 223 225 179
3 216 226 222
3 217 227 223
3 226 224 222
3 227 225 223
3 188 192 182
3 189 193 183
3 216 220 226
3 217 221 227
3 178 176 222
3 179 177 223
3 214 218 216
3 215 219 217
3 212 218 214
3 213 219 215
3 198 228 230
3 199 229 231
3 228 198 192
3 229 199 193
3 214 190 210
3 215 191 211
3 230 228 176
3 231 229 177
3 230 176 180
3 231 177 181
4 224 178 179 225
4 178 180 181 179
4 180 230 231 181
4 230 198 199 231
4 198 194 195 199
4 194 196 197 195
4 196 206 207 197
4 206 204 205 207
4 204 200 201 205
4 200 202 203 201
4 202 184 185 203
4 184 186 187 185
4 186 182 183 187
4 182 188 189 183
4 188 208 209 189
4 208 210 211 209
4 210 212 213 211
4 212 218 219 213
4 218 220 221 219
4 220 226 227 221
4 226 224 225 227
4 222 216 217 223
4 216 214 215 217
4 214 190 191 215
4 190 192 193 191
4 192 228 229 193
4 228 176 177 229
4 176 222 223 177
4 232 234 236 238
4 233 235 237 239
4 232 234 235 233
4 234 236 237 235
4 236 238 239 237
4 238 232 233 239
5 240 242 244 246 248
5 241 243 245 247 249
4 240 242 243 241
4 242 244 245 243
4 244 246 247 245
4 246 248 249 247
4 248 240 241 249
7 250 252 254 256 258 260 262
7 251 253 255 257 259 261 263
4 250 252 253 251
4 252 254 255 253
4 254 256 257 255
4 256 258 259 257
4 258 260 261 259
4 260 262 263 261
4 262 250 251 263
4 264 266 268 270
4 265 267 269 271
4 264 266 267 265
4 266 268 269 267
4 268 270 271 269
4 270 264 265 271
4 272 274 276 278
4 273 275 277 279
4 272 274 275 273
4 274 276 277 275
4 276 278 279 277
4 278 272 273 279
19 280 282 284 286 288 290 292 294 296 298 300 302 304 306 308 310 221 227 225
19 281 283 285 287 289 291 293 295 297 299 301 303 305 307 309 311 312 313 314
4 280 282 283 281
4 282 284 285 283
4 284 286 287 285
4 286 288 289 287
4 288 290 291 289
4 290 292 293 291
4 292 294 295 293
4 294 296 297 295
4 296 298 299 297
4 298 300 301 299
4 300 302 303 301
4 302 304 305 303
4 304 306 307 305
4 306 308 309 307
4 308 310 311 309
4 310 221 312 311
4 221 227 313 312
4 227 225 314 313
4 225 280 281 314
5 315 317 319 321 323
5 316 318 320 322 324
4 315 317 318 316
4 317 319 320 318
4 319 321 322 320
4 321 323 324 322
4 323 315 316 324
3 318 326 328
3 325 327 329
4 318 326 327 325
4 326 328 329 327
4 328 318 325 329
3 330 317 319
3 331 318 320
4 330 317 318 331
4 317 319 320 318
4 319 330 331 320
4 332 334 336 338
4 333 335 337 339
4 332 334 335 333
4 334 336 337 335
4 336 338 339 337
4 338 332 333 339
9 340 342 344 346 348 350 352 354 356
9 341 343 345 347 349 351 353 355 357
4 340 342 343 341
4 342 344 345 343
4 344 346 347 345
4 346 348 349 347
4 348 350 351 349
4 350 352 353 351
4 352 354 355 353
4 354 356 357 355
4 356 340 341 357
4 358 360 347 363
4 359 361 362 364
4 358 360 361 359
4 360 347 362 361
4 347 363 364 362
4 363 358 359 364
5 365 367 362 370 372
5 366 368 369 371 373
4 365 367 368 366
4 367 362 369 368
4 362 370 371 369
4 370 372 373 371
4 372 365 366 373
4 374 376 378 380
4 375 377 379 381
4 374 376 377 375
4 376 378 379 377
4 378 380 381 379
4 380 374 375 381
4 382 384 386 388
4 383 385 387 389
4 382 384 385 383
4 384 386 387 385
4 386 388 389 387
4 388 382 383 389
7 390 392 394 396 398 400 402
7 391 393 395 397 399 401 403
4 390 392 393 391
4 392 394 395 393
4 394 396 397 395
4 396 398 399 397
4 398 400 401 399
4 400 402 403 401
4 402 390 391 403
6 341 405 407 409 355 357
6 404 406 408 410 411 412
4 341 405 406 404
4 405 407 408 406
4 407 409 410 408
4 409 355 411 410
4 355 357 412 411
4 357 341 404 412
6 413 406 408 417 419 421
6 414 415 416 418 420 422
4 413 406 415 414
4 406 408 416 415
4 408 417 418 416
4 417 419 420 418
4 419 421 422 420
4 421 413 414 422
4 423 425 427 429
4 424 426 428 430
4 423 425 426 424
4 425 427 428 426
4 427 429 430 428
4 429 423 424 430
5 431 433 435 428 438
5 432 434 436 437 439
4 431 433 434 432
4 433 435 436 434
4 435 428 437 436
4 428 438 439 437
4 438 431 432 439
9 440 442 444 446 448 450 452 454 456
9 441 443 445 447 449 451 453 455 457
4 440 442 443 441
4 442 444 445 443
4 444 446 447 445
4 446 448 449 447
4 448 450 451 449
4 450 452 453 451
4 452 454 455 453
4 454 456 457 455
4 456 440 441 457
7 458 460 462 464 451 453 468
7 459 461 463 465 466 467 469
4 458 460 461 459
4 460 462 463 461
4 462 464 465 463
4 464 451 466 465
4 451 453 467 466
4 453 468 469 467
4 468 458 459 469
4 470 463 465 474
4 471 472 473 475
4 470 463 472 471
4 463 465 473 472
4 465 474 475 473
4 474 470 471 475
4 471 472 478 480
4 476 477 479 481
4 471 472 477 476
4 472 478 479 477
4 478 480 481 479
4 480 471 476 481
13 482 484 486 488 490 492 494 496 498 500 502 504 506
13 483 485 487 489 491 493 495 497 499 501 503 505 507
4 482 484 485 483
4 484 486 487 485
4 486 488 489 487
4 488 490 491 489
4 490 492 493 491
4 492 494 495 493
4 494 496 497 495
4 496 498 499 497
4 498 500 501 499
4 500 502 503 501
4 502 504 505 503
4 504 506 507 505
4 506 482 483 507
10 508 487 511 513 493 516 501 503 520 522
10 509 510 512 514 515 517 518 519 521 523
4 508 487 510 509
4 487 511 512 510
4 511 513 514 512
4 513 493 515 514
4 493 516 517 515
4 516 501 518 517
4 501 503 519 518
4 503 520 521 519
4 520 522 523 521
4 522 508 509 523
4 524 526 528 530
4 525 527 529 531
4 524 526 527 525
4 526 528 529 527
4 528 530 531 529
4 530 524 525 531
4 532 534 536 538
4 533 535 537 539
4 532 534 535 533
4 534 536 537 535
4 536 538 539 537
4 538 532 533 539
3 540 542 544
3 541 543 545
4 540 542 543 541
4 542 544 545 543
4 544 540 541 545
3 541 543 545
3 546 547 548
4 541 543 547 546
4 543 545 548 547
4 545 541 546 548
3 549 551 547
3 550 552 553
4 549 551 552 550
4 551 547 553 552
4 547 549 550 553
3 550 552 553
3 554 555 556
4 550 552 555 554
4 552 553 556 555
4 553 550 554 556
3 554 555 556
3 557 558 559
4 554 555 558 557
4 555 556 559 558
4 556 554 557 559
29 560 562 564 566 568 570 572 574 576 578 580 582 584 586 588 590 592 594 596 598 600 602 604 606 608 610 612 614 616
29 561 563 565 567 569 571 573 575 577 579 581 583 585 587 589 591 593 595 597 599 601 603 605 607 609 611 613 615 617
4 560 562 563 561
4 562 564 565 563
4 564 566 567 565
4 566 568 569 567
4 568 570 571 569
4 570 572 573 571
4 572 574 575 573
4 574 576 577 575
4 576 578 579 577
4 578 580 581 579
4 580 582 583 581
4 582 584 585 583
4 584 586 587 585
4 586 588 589 587
4 588 590 591 589
4 590 592 593 591
4 592 594 595 593
4 594 596 597 595
4 596 598 599 597
4 598 600 601 599
4 600 602 603 601
4 602 604 605 603
4 604 606 607 605
4 606 608 609 607
4 608 610 611 609
4 610 612 613 611
4 612 614 615 613
4 614 616 617 615
4 616 560 561 617
24 561 619 621 623 625 627 629 581 632 585 635 637 601 640 642 644 609 613 615 649 651 653 655 617
24 618 620 622 624 626 628 630 631 633 634 636 638 639 641 643 645 646 647 648 650 652 654 656 657
4 561 619 620 618
4 619 621 622 620
4 621 623 624 622
4 623 625 626 624
4 625 627 628 626
4 627 629 630 628
4 629 581 631 630
4 581 632 633 631
4 632 585 634 633
4 585 635 636 634
4 635 637 638 636
4 637 601 639 638
4 601 640 641 639
4 640 642 643 641
4 642 644 645 643
4 644 609 646 645
4 609 613 647 646
4 613 615 648 647
4 615 649 650 648
4 649 651 652 650
4 651 653 654 652
4 653 655 656 654
4 655 617 657 656
4 617 561 618 657
18 658 660 662 664 666 668 670 672 674 676 678 680 682 684 686 688 690 692
18 659 661 663 665 667 669 671 673 675 677 679 681 683 685 687 689 691 693
4 658 660 661 659
4 660 662 663 661
4 662 664 665 663
4 664 666 667 665
4 666 668 669 667
4 668 670 671 669
4 670 672 673 671
4 672 674 675 673
4 674 676 677 675
4 676 678 679 677
4 678 680 681 679
4 680 682 683 681
4 682 684 685 683
4 684 686 687 685
4 686 688 689 687
4 688 690 691 689
4 690 692 693 691
4 692 658 659 693
5 694 696 698 700 702
5 695 697 699 701 703
4 694 696 697 695
4 696 698 699 697
4 698 700 701 699
4 700 702 703 701
4 702 694 695 703
5 704 697 707 709 711
5 705 706 708 710 712
4 704 697 706 705
4 697 707 708 706
4 707 709 710 708
4 709 711 712 710
4 711 704 705 712
4 713 708 716 718
4 714 715 717 719
4 713 708 715 714
4 708 716 717 715
4 716 718 719 717
4 718 713 714 719
6 720 722 724 726 728 730
6 721 723 725 727 729 731
4 720 722 723 721
4 722 724 725 723
4 724 726 727 725
4 726 728 729 727
4 728 730 731 729
4 730 720 721 731
8 732 734 736 657 618 740 742 744
8 733 735 737 738 739 741 743 745
4 732 734 735 733
4 734 736 737 735
4 736 657 738 737
4 657 618 739 738
4 618 740 741 739
4 740 742 743 741
4 742 744 745 743
4 744 732 733 745
4 746 748 750 752
4 747 749 751 753
4 746 748 749 747
4 748 750 751 749
4 750 752 753 751
4 752 746 747 753
4 754 756 758 739
4 755 757 759 760
4 754 756 757 755
4 756 758 759 757
4 758 739 760 759
4 739 754 755 760
6 761 763 765 767 769 771
6 762 764 766 768 770 772
4 761 763 764 762
4 763 765 766 764
4 765 767 768 766
4 767 769 770 768
4 769 771 772 770
4 771 761 762 772
