ply
format ascii 1.0
element vertex 728
property double x
property double y
property double z
element face 761
property list uchar int vertex_indices
end_header
-21 -38 5
-21 -38 13
-20 -49 5
-20 -49 13
-2 -49 5
-2 -49 13
-2 -38 5
-2 -38 13
50 -47 5
50 -47 11
62 -48 5
62 -48 11
62 -41 5
62 -41 11
59 -41 5
59 -41 11
57 -38 5
57 -38 11
51 -30 5
51 -30 11
57 -30 5
57 -30 11
50.2931 -42.0172 11
50.2931 -42.0172 12
50 -47 12
62 -48 12
62 -41 12
50.2931 -42.0172 13
51 -46 12
51 -46 13
62 -46 12
62 -46 13
62 -42 12
62 -42 13
-56 -52 5
-56 -52 12
-55 -46 5
-55 -46 12
-60 -46 5
-60 -46 12
-64 -53 5
-64 -53 12
-58 -53 5
-58 -53 12
-63 -43 5
-63 -43 12
-64 -28 5
-64 -28 12
-64 -6 5
-64 -6 12
-63 -22 5
-63 -22 12
-62 -21 5
-62 -21 12
-2 -7 5
-2 -7 13
-8 -4 5
-8 -4 13
-20 -6 5
-20 -6 13
-21 -18 5
-21 -18 13
-2 -18 5
-2 -18 13
-43 -37 5
-43 -37 13
-44 -50 5
-44 -50 13
-40 -52 5
-40 -52 13
-35 -52 5
-35 -52 13
-33 -43 5
-33 -43 13
-35 -11 5
-35 -11 13
-35 3 5
-35 3 13
-42 3 5
-42 3 13
-46 -14 5
-46 -14 13
-45 -30 5
-45 -30 13
-31 0 5
-31 0 13
-35 -37 13
-35 -37 14
-39 -38 13
-39 -38 14
-42 -41 13
-42 -41 14
-41 -46 13
-41 -46 14
-35 -47 13
-35 -47 14
-37 -29 13
-37 -29 14
-39 -31 13
-39 -31 14
-37 -31 13
-37 -31 14
-38 -20 13
-38 -20 14
-40 -22 13
-40 -22 14
-38 -22 13
-38 -22 14
-38 -10 13
-38 -10 14
-39 -12 13
-39 -12 14
-37 -14 13
-37 -14 14
-36 -13 13
-36 -13 14
-38 -3 13
-38 -3 14
-35 -4 13
-35 -4 14
-35 -2 13
-35 -2 14
34 22 5
34 22 6
41 26 5
41 26 6
34 34 5
34 34 6
30 -55 5
30 -55 6
17 -44 5
17 -44 6
17 -55 5
17 -55 6
35 -46 5
35 -46 6
33 -42 5
33 -42 6
31 -45 5
31 -45 6
15 -53 5
15 -53 6
15 -47 5
15 -47 6
32 -62 5
32 -62 6
32 -58 5
32 -58 6
15 -62 5
15 -62 6
32 -54 5
32 -54 6
33 -48 5
33 -48 6
15 -42 5
15 -42 6
40 -46 5
40 -46 6
41 -11 5
41 -11 6
39 3 5
39 3 6
41 7 5
41 7 6
27 29 5
27 29 6
23 29 5
23 29 6
23 36 5
23 36 6
16 34 5
16 34 6
9 28 5
9 28 6
16 22 5
16 22 6
9 -44 5
9 -44 6
39 -5 5
39 -5 6
16 22 9
16 34 9
9 26 6
9 26 9
31 -45 9
30 -55 9
33 -48 9
35 -46 9
33 -43 6
33 -43 9
15 -53 9
17 -55 9
15 -47 9
17 -57 6
17 -57 9
32 -62 9
32 -58 9
15 -62 9
15 -58 6
15 -58 9
32 -54 9
40 -46 9
39 3 9
41 8 6
41 8 9
34 22 9
41 26 9
34 34 9
23 29 9
22.0755 35.7358 6
22.0755 35.7358 9
29 28 6
29 28 9
29 36 6
29 36 9
15 -43 6
15 -43 9
9 -44 9
15 13 6
15 13 9
17 -45 9
17 -45 19
17 -62 9
17 -62 19
31 -62 9
31 -62 19
31 -46 9
31 -46 19
20.9797 -45.2843 19
20.9797 -45.2843 20
19 -49 19
19 -49 20
19 -62 19
19 -62 20
28 -62 19
28 -62 20
28 -47 19
28 -47 20
25 -45 19
25 -45 20
21 -62 20
21 -62 21
27 -62 20
27 -62 21
26 -55 20
26 -55 21
21 -49 20
21 -49 21
28 -51 20
28 -51 21
27 -49 20
27 -49 21
11 -29 9
11 -29 10
11 -32 9
11 -32 10
13 -32 9
13 -32 10
13 -30 9
13 -30 10
10 -4 9
10 -4 10
15 -4 9
15 -4 10
16 24 9
16 24 10
15.0708 32.9381 9
15.0708 32.9381 10
11.354 28.6903 9
11.354 28.6903 10
9 23 9
9 23 10
19 28 9
19 28 10
24 30 9
24 30 10
34 -4 9
34 -4 10
39.1428 -3.99709 9
39.1428 -3.99709 10
39 13 9
39 13 10
34 23 9
34 23 10
41 18 9
41 18 10
29 29 9
29 29 10
41 24 9
41 24 10
37.7168 29.7522 9
37.7168 29.7522 10
34 34 10
29 36 10
22.0755 35.7358 10
37 19 10
37 19 11
34 16 10
34 16 11
35 -3.99943 10
35 -3.99943 11
38 -3 10
38 -3 11
39 17 10
39 17 11
11 13 10
11 13 11
10 -4 11
14 -3 10
14 -3 11
15 25 10
15 25 11
9.18493 18.0068 10
9.18493 18.0068 11
19.1697 34.5752 10
19.1697 34.5752 11
11.354 28.6903 11
21 30 10
21 30 11
33 33 10
33 33 11
28 35 10
28 35 11
30 30 10
30 30 11
32 28 10
32 28 11
35 29 10
35 29 11
9.60221 16.8558 11
9.60221 16.8558 12
10.243 15.0881 11
10.243 15.0881 12
14.6433 15.0127 11
14.6433 15.0127 12
14.7146 17.0102 11
14.7146 17.0102 12
-61 15 5
-61 15 6
-58 7 5
-58 7 6
-20 21 5
-20 21 6
-2 38 5
-2 38 6
-11 21 5
-11 21 6
-6 15 5
-6 15 6
-2 14 5
-2 14 6
-58 7 7
-39 13 6
-39 13 7
-28.8976 17.722 6
-28.8976 17.722 7
-2 38 7
-61 15 7
-13 22 6
-13 22 7
-5 14 6
-5 14 7
-2 14 7
-58 7 8
-39 13 8
-24 20 7
-24 20 8
-2 38 8
-61 15 8
-13 22 8
-5 14 8
-2 14 8
-51.8337 18.5733 8
-51.8337 18.5733 23
-61 15 23
-58 7 23
-48.9547 9.85642 8
-48.9547 9.85642 23
-56 15 23
-56 15 24
-56 11 23
-56 11 24
-52 10 23
-52 10 24
-52 14 23
-52 14 24
-55 14 24
-55 14 25
-56 13 24
-56 13 25
-53.8824 10.4706 24
-53.8824 10.4706 25
-53 13 24
-53 13 25
-37 22 8
-37 22 9
-45 19 8
-45 19 9
-46 14 8
-46 14 9
-40 17 8
-40 17 9
-32 21 8
-32 21 9
-33 17 8
-33 17 9
-12 22 8
-12 22 14
-5 14 14
-2 14 14
0 25 8
0 25 14
-15 32 8
-15 32 14
-25.8796 28.691 8
-25.8796 28.691 14
-23 21 8
-23 21 14
-20 20 8
-20 20 14
-2 39 8
-2 39 14
-17 32 14
-17 32 22
-25.8796 28.691 22
-23 20 14
-23 20 22
-14 23 14
-14 23 22
-21 29 22
-21 29 24
-22 23 22
-22 23 24
-18 23 22
-18 23 24
-17 27 22
-17 27 24
-18 29 22
-18 29 24
-8 25 14
-8 25 15
-7.78761 17.1858 14
-7.78761 17.1858 15
-1.648 15.936 14
-1.648 15.936 15
-0.14 25.98 14
-0.14 25.98 15
-1 36 14
-1 36 15
-5.16055 37.2982 14
-5.16055 37.2982 15
-11.8394 33.7018 14
-11.8394 33.7018 15
-13 31 14
-13 31 15
62 28 5
62 28 7
62 39 5
62 39 7
60 38 5
60 38 7
57 40 5
57 40 7
50 53 5
50 53 7
49 39 5
49 39 7
58 51 5
58 51 7
61 35 7
61 35 8
59.8483 29.8207 7
59.8483 29.8207 8
62 28 8
52.8103 35.7759 7
52.8103 35.7759 34
59 36 7
59 36 34
57 40 34
50.9412 52.7647 7
50.9412 52.7647 34
50 39 7
50 39 34
58 51 34
54 44 34
54 44 35
52.8103 35.7759 35
59 36 35
58 43 34
58 43 35
54 44 36
54.0065 35.8192 35
54.0065 35.8192 36
58.0013 35.9638 35
58.0013 35.9638 36
57 42 35
57 42 36
-64 56 5
-64 56 12
-64 50 5
-64 50 12
-59 50 5
-59 50 12
-57 37 5
-57 37 12
-64 35 5
-64 35 12
-64 28 5
-64 28 12
-48 34 5
-48 34 12
-55 39 5
-55 39 12
-46 40 5
-46 40 12
-55 43 5
-55 43 12
-49 58 5
-49 58 12
-43 42 5
-43 42 12
-57.2154 46.8769 12
-57.2154 46.8769 13
-55 40 12
-55 40 13
-50 34 12
-50 34 13
-48 34 13
-46.3 39.1 12
-46.3 39.1 13
-52 55 12
-52 55 13
-55 58 12
-55 58 13
-60 50 12
-60 50 13
-64 57 12
-64 57 13
-64 51 12
-64 51 13
-49 41 13
-49 41 14
-52 39 13
-52 39 14
-52.2951 36.7541 13
-52.2951 36.7541 14
-49 37 13
-49 37 14
-64 56 13
-64 56 14
-64 51 14
-56 51 13
-56 51 14
-56 55 13
-56 55 14
61 58 5
61 58 7
60 55 5
60 55 7
62 54 5
62 54 7
44 63 5
44 63 10
46 62 5
46 62 10
50 64 5
50 64 10
20 61 5
20 61 8
18 64 5
18 64 8
16 64 5
16 64 8
17 61 5
17 61 8
-3 57 5
-3 57 8
-5 59 5
-5 59 8
-8 59 5
-8 59 8
-10 56 5
-10 56 8
-21 49 5
-21 49 8
-29 51 5
-29 51 8
-39 49 5
-39 49 8
-39 46 5
-39 46 8
-36 40 5
-36 40 8
-30 41 5
-30 41 8
-7 49 5
-7 49 8
8 57 5
8 57 8
-14 55 5
-14 55 8
15 59 5
15 59 8
24 61 5
24 61 8
0 49 5
0 49 8
38 59 5
38 59 8
38 64 5
38 64 8
25 64 5
25 64 8
-37 42 8
-37 42 9
-27.0135 42.0388 8
-27.0135 42.0388 9
-20 46 8
-20 46 9
-25 48 8
-25 48 9
-26.8824 50.4706 8
-26.8824 50.4706 9
-36 49 8
-36 49 9
-20 48 8
-20 48 9
-14 51 8
-14 51 9
-9.09443 48.2715 8
-9.09443 48.2715 9
-6 51 8
-6 51 9
-5 53 8
-5 53 9
-13.0588 55.2353 8
-13.0588 55.2353 9
3.98705 50.0492 8
3.98705 50.0492 9
7 53 8
7 53 9
11 56 8
11 56 9
0 57 8
0 57 9
11 54 8
11 54 9
-34.0507 49.3144 9
-34.0507 49.3144 10
-36.58 44.94 9
-36.58 44.94 10
-34 41 9
-34 41 10
-31 43 9
-31 43 10
-31 46 9
-31 46 10
-33 47 10
-33 47 11
-36.58 44.94 11
-34.7584 42.1582 10
-34.7584 42.1582 11
-32 43 10
-32 43 11
-34.1835 46.319 11
-34.1835 46.319 12
-34.7584 42.1582 12
-32.9148 42.7208 11
-32.9148 42.7208 12
-1 53 9
-1 53 10
-4 53 9
-4 53 10
-4.01796 50.8113 9
-4.01796 50.8113 10
0.0404549 50.4249 9
0.0404549 50.4249 10
4.97937 51.0211 9
4.97937 51.0211 10
4 56 9
4 56 10
0 56 9
0 56 10
32 60 8
32 60 9
38 59 9
38 64 9
27 64 8
27 64 9
27 61 8
27 61 9
27 57 8
27 57 9
30.0259 56.9016 8
30.0259 56.9016 9
21 60 8
21 60 9
20 56 8
20 56 9
26 55 8
26 55 9
22 59 9
22 59 10
21.9459 55.6757 9
21.9459 55.6757 10
25 56 9
25 56 10
25 59 9
25 59 10
33 64 9
33 64 10
34 59 9
34 59 10
38 60 9
38 60 10
38 64 10
-32 57 5
-32 57 6
-30 58 5
-30 58 6
-31 60 5
-31 60 6
-33 64 5
-33 64 6
-27 64 5
-27 64 6
-27 62 5
-27 62 6
4 0 2 4 6
4 1 3 5 7
4 0 2 3 1
4 2 4 5 3
4 4 6 7 5
4 6 0 1 7
4 8 10 12 14
4 9 11 13 15
3 8 14 16
3 9 15 17
4 18 8 16 20
4 19 9 17 21
4 18 8 9 19
4 8 10 11 9
4 10 12 13 11
4 12 14 15 13
4 14 16 17 15
4 16 20 21 17
4 20 18 19 21
4 22 9 11 13
4 23 24 25 26
4 22 9 24 23
4 9 11 25 24
4 11 13 26 25
4 13 22 23 26
4 23 28 30 32
4 27 29 31 33
4 23 28 29 27
4 28 30 31 29
4 30 32 33 31
4 32 23 27 33
3 34 36 38
3 35 37 39
5 40 42 34 38 44
5 41 43 35 39 45
3 46 40 44
3 47 41 45
4 46 40 41 47
4 40 42 43 41
4 42 34 35 43
4 34 36 37 35
4 36 38 39 37
4 38 44 45 39
4 44 46 47 45
3 48 50 52
3 49 51 53
4 48 50 51 49
4 50 52 53 51
4 52 48 49 53
5 54 56 58 60 62
5 55 57 59 61 63
4 54 56 57 55
4 56 58 59 57
4 58 60 61 59
4 60 62 63 61
4 62 54 55 63
4 64 66 68 70
4 65 67 69 71
4 64 70 72 74
4 65 71 73 75
6 76 78 80 82 64 74
6 77 79 81 83 65 75
3 74 84 76
3 75 85 77
4 78 80 81 79
4 80 82 83 81
4 82 64 65 83
4 64 66 67 65
4 66 68 69 67
4 68 70 71 69
4 70 72 73 71
4 72 74 75 73
4 74 84 85 75
4 84 76 77 85
4 76 78 79 77
5 86 88 90 92 94
5 87 89 91 93 95
4 86 88 89 87
4 88 90 91 89
4 90 92 93 91
4 92 94 95 93
4 94 86 87 95
3 96 98 100
3 97 99 101
4 96 98 99 97
4 98 100 101 99
4 100 96 97 101
3 102 104 106
3 103 105 107
4 102 104 105 103
4 104 106 107 105
4 106 102 103 107
4 108 110 112 114
4 109 111 113 115
4 108 110 111 109
4 110 112 113 111
4 112 114 115 113
4 114 108 109 115
3 116 118 120
3 117 119 121
4 116 118 119 117
4 118 120 121 119
4 120 116 117 121
3 122 124 126
3 123 125 127
3 128 130 132
3 129 131 133
3 134 136 138
3 135 137 139
3 140 132 142
3 141 133 143
3 128 144 146
3 129 145 147
3 132 148 128
3 133 149 129
3 144 128 148
3 145 129 149
3 128 150 152
3 129 151 153
3 128 152 138
3 129 153 139
3 130 128 138
3 131 129 139
3 130 142 132
3 131 143 133
3 154 142 130
3 155 143 131
3 156 158 136
3 157 159 137
3 160 162 122
3 161 163 123
3 164 122 126
3 165 123 127
3 166 168 170
3 167 169 171
3 164 168 166
3 165 169 167
3 172 174 170
3 173 175 171
3 134 138 152
3 135 139 153
3 168 164 126
3 169 165 127
3 166 170 174
3 167 171 175
3 162 124 122
3 163 125 123
3 156 136 134
3 157 137 135
3 176 154 174
3 177 155 175
3 122 178 160
3 123 179 161
3 178 136 158
3 179 137 159
3 122 136 178
3 123 137 179
3 176 142 154
3 177 143 155
3 176 174 172
3 177 175 173
4 168 170 171 169
4 170 172 173 171
4 172 176 177 173
4 176 142 143 177
4 142 140 141 143
4 140 132 133 141
4 132 148 149 133
4 148 144 145 149
4 144 146 147 145
4 146 128 129 147
4 128 150 151 129
4 150 152 153 151
4 152 134 135 153
4 134 156 157 135
4 156 158 159 157
4 158 178 179 159
4 178 160 161 179
4 160 162 163 161
4 162 124 125 163
4 124 126 127 125
4 126 168 169 127
4 166 164 165 167
4 164 122 123 165
4 122 136 137 123
4 136 138 139 137
4 138 130 131 139
4 130 154 155 131
4 154 174 175 155
4 174 166 167 175
3 175 171 182
3 180 181 183
3 139 129 153
3 184 185 186
3 135 188 139
3 187 189 184
3 141 133 143
3 190 191 192
3 129 193 145
3 185 194 195
3 129 145 147
3 185 195 196
3 133 193 129
3 191 194 185
3 149 193 198
3 197 194 199
3 145 193 149
3 195 194 197
3 129 151 153
3 185 200 186
3 139 143 133
3 184 192 191
3 133 129 139
3 191 185 184
3 188 135 157
3 189 187 201
3 188 157 161
3 189 201 202
3 161 203 123
3 202 204 205
3 123 125 127
3 205 206 207
3 167 209 171
3 208 210 181
3 211 213 167
3 212 214 208
3 213 209 167
3 214 210 208
3 135 139 153
3 187 184 186
3 211 127 213
3 212 207 214
3 123 127 211
3 205 207 212
3 203 125 123
3 204 206 205
3 143 215 177
3 192 216 217
3 215 143 139
3 216 192 184
3 123 188 161
3 205 189 202
3 177 215 218
3 217 216 219
3 177 218 182
3 217 219 183
3 171 175 167
3 181 180 208
3 182 218 175
3 183 219 180
4 209 171 181 210
4 171 182 183 181
4 182 177 217 183
4 177 143 192 217
4 143 141 190 192
4 141 133 191 190
4 133 193 194 191
4 193 198 199 194
4 198 149 197 199
4 149 145 195 197
4 145 147 196 195
4 147 129 185 196
4 129 151 200 185
4 151 153 186 200
4 153 135 187 186
4 135 157 201 187
4 157 161 202 201
4 161 203 204 202
4 203 125 206 204
4 125 127 207 206
4 127 213 214 207
4 213 209 210 214
4 167 211 212 208
4 211 123 205 212
4 123 188 189 205
4 188 139 184 189
4 139 215 216 184
4 215 218 219 216
4 218 175 180 219
4 175 167 208 180
4 220 222 224 226
4 221 223 225 227
4 220 222 223 221
4 222 224 225 223
4 224 226 227 225
4 226 220 221 227
6 228 230 232 234 236 238
6 229 231 233 235 237 239
4 228 230 231 229
4 230 232 233 231
4 232 234 235 233
4 234 236 237 235
4 236 238 239 237
4 238 228 229 239
3 240 242 244
3 241 243 245
5 246 240 244 248 250
5 247 241 245 249 251
4 246 240 241 247
4 240 242 243 241
4 242 244 245 243
4 244 248 249 245
4 248 250 251 249
4 250 246 247 251
4 252 254 256 258
4 253 255 257 259
4 252 254 255 253
4 254 256 257 255
4 256 258 259 257
4 258 252 253 259
3 260 262 264
3 261 263 265
5 266 268 270 260 264
5 267 269 271 261 265
3 266 264 272
3 267 265 273
3 266 272 274
3 267 273 275
3 276 278 280
3 277 279 281
3 282 276 280
3 283 277 281
3 282 280 284
3 283 281 285
3 286 282 284
3 287 283 285
6 286 284 288 290 207 214
6 287 285 289 291 292 293
5 266 274 286 214 210
5 267 275 287 293 294
4 266 268 269 267
4 268 270 271 269
4 270 260 261 271
4 260 262 263 261
4 262 264 265 263
4 264 272 273 265
4 272 274 275 273
4 274 286 287 275
4 286 282 283 287
4 282 276 277 283
4 276 278 279 277
4 278 280 281 279
4 280 284 285 281
4 284 288 289 285
4 288 290 291 289
4 290 207 292 291
4 207 214 293 292
4 214 210 294 293
4 210 266 267 294
5 295 297 299 301 303
5 296 298 300 302 304
4 295 297 298 296
4 297 299 300 298
4 299 301 302 300
4 301 303 304 302
4 303 295 296 304
3 305 261 308
3 306 307 309
3 305 308 310
3 306 309 311
3 312 305 310
3 313 306 311
4 314 269 312 310
4 315 316 313 311
3 314 310 317
3 315 311 318
5 319 321 314 317 323
5 320 322 315 318 324
4 319 323 325 327
4 320 324 326 328
4 319 321 322 320
4 321 314 315 322
4 314 269 316 315
4 269 312 313 316
4 312 305 306 313
4 305 261 307 306
4 261 308 309 307
4 308 310 311 309
4 310 317 318 311
4 317 323 324 318
4 323 325 326 324
4 325 327 328 326
4 327 319 320 328
4 329 331 333 335
4 330 332 334 336
4 329 331 332 330
4 331 333 334 332
4 333 335 336 334
4 335 329 330 336
3 337 339 341
3 338 340 342
3 343 337 341
3 344 338 342
3 343 341 345
3 344 342 346
4 343 345 347 349
4 344 346 348 350
4 343 337 338 344
4 337 339 340 338
4 339 341 342 340
4 341 345 346 342
4 345 347 348 346
4 347 349 350 348
4 349 343 344 350
3 340 352 354
3 351 353 355
4 344 338 340 354
4 356 357 351 355
3 344 354 358
3 356 355 359
4 344 358 360 350
4 356 359 361 362
4 344 338 357 356
4 338 340 351 357
4 340 352 353 351
4 352 354 355 353
4 354 358 359 355
4 358 360 361 359
4 360 350 362 361
4 350 344 356 362
3 351 353 365
3 363 364 366
4 356 357 351 365
4 367 368 363 366
3 356 365 359
3 367 366 369
4 356 359 361 362
4 367 369 370 371
4 356 357 368 367
4 357 351 363 368
4 351 353 364 363
4 353 365 366 364
4 365 359 369 366
4 359 361 370 369
4 361 362 371 370
4 362 356 367 371
4 372 368 363 376
4 373 374 375 377
4 372 368 374 373
4 368 363 375 374
4 363 376 377 375
4 376 372 373 377
4 378 380 382 384
4 379 381 383 385
4 378 380 381 379
4 380 382 383 381
4 382 384 385 383
4 384 378 379 385
4 386 388 390 392
4 387 389 391 393
4 386 388 389 387
4 388 390 391 389
4 390 392 393 391
4 392 386 387 393
4 394 396 398 400
4 395 397 399 401
4 402 394 400 404
4 403 395 401 405
4 402 394 395 403
4 394 396 397 395
4 396 398 399 397
4 398 400 401 399
4 400 404 405 401
4 404 402 403 405
4 406 370 371 410
4 407 408 409 411
4 412 414 416 418
4 413 415 417 419
5 420 412 418 406 410
5 421 413 419 407 411
4 420 412 413 421
4 412 414 415 413
4 414 416 417 415
4 416 418 419 417
4 418 406 407 419
4 406 370 408 407
4 370 371 409 408
4 371 410 411 409
4 410 420 421 411
4 422 415 425 427
4 423 424 426 428
4 422 415 424 423
4 415 425 426 424
4 425 427 428 426
4 427 422 423 428
5 429 431 433 435 437
5 430 432 434 436 438
4 429 431 432 430
4 431 433 434 432
4 433 435 436 434
4 435 437 438 436
4 437 429 430 438
3 439 441 443
3 440 442 444
5 439 443 445 447 449
5 440 444 446 448 450
4 449 451 453 439
4 450 452 454 440
4 449 451 452 450
4 451 453 454 452
4 453 439 440 454
4 439 441 442 440
4 441 443 444 442
4 443 445 446 444
4 445 447 448 446
4 447 449 450 448
3 455 457 459
3 456 458 460
3 455 459 461
3 456 460 462
4 463 465 455 461
4 464 466 456 462
3 463 461 467
3 464 462 468
4 463 465 466 464
4 465 455 456 466
4 455 457 458 456
4 457 459 460 458
4 459 461 462 460
4 461 467 468 462
4 467 463 464 468
3 469 471 456
3 470 472 473
4 469 471 472 470
4 471 456 473 472
4 456 469 470 473
3 474 476 462
3 475 477 478
5 479 481 474 462 468
5 480 482 475 478 483
4 479 481 482 480
4 481 474 475 482
4 474 476 477 475
4 476 462 478 477
4 462 468 483 478
4 468 479 480 483
4 484 475 477 488
4 485 486 487 489
4 484 475 486 485
4 475 477 487 486
4 477 488 489 487
4 488 484 485 489
4 485 491 493 495
4 490 492 494 496
4 485 491 492 490
4 491 493 494 492
4 493 495 496 494
4 495 485 490 496
3 497 499 501
3 498 500 502
4 503 505 507 509
4 504 506 508 510
3 511 503 509
3 512 504 510
3 511 509 513
3 512 510 514
3 515 511 513
3 516 512 514
3 501 515 513
3 502 516 514
5 517 497 501 513 519
5 518 498 502 514 520
4 517 497 498 518
4 497 499 500 498
4 499 501 502 500
4 501 515 516 502
4 515 511 512 516
4 511 503 504 512
4 503 505 506 504
4 505 507 508 506
4 507 509 510 508
4 509 513 514 510
4 513 519 520 514
4 519 517 518 520
4 521 523 525 510
4 522 524 526 527
5 521 510 528 530 532
5 522 527 529 531 533
3 534 521 532
3 535 522 533
4 536 538 534 532
4 537 539 535 533
4 536 538 539 537
4 538 534 535 539
4 534 521 522 535
4 521 523 524 522
4 523 525 526 524
4 525 510 527 526
4 510 528 529 527
4 528 530 531 529
4 530 532 533 531
4 532 536 537 533
4 540 542 544 546
4 541 543 545 547
4 540 542 543 541
4 542 544 545 543
4 544 546 547 545
4 546 540 541 547
4 548 539 551 553
4 549 550 552 554
4 548 539 550 549
4 539 551 552 550
4 551 553 554 552
4 553 548 549 554
3 555 557 559
3 556 558 560
4 555 557 558 556
4 557 559 560 558
4 559 555 556 560
3 561 563 565
3 562 564 566
4 561 563 564 562
4 563 565 566 564
4 565 561 562 566
4 567 569 571 573
4 568 570 572 574
4 575 577 579 581
4 576 578 580 582
3 583 585 587
3 584 586 588
5 583 587 589 591 593
5 584 588 590 592 594
3 583 593 595
3 584 594 596
6 597 575 581 599 583 595
6 598 576 582 600 584 596
3 601 597 595
3 602 598 596
4 603 567 573 601
4 604 568 574 602
3 603 601 595
3 604 602 596
5 603 595 605 607 609
5 604 596 606 608 610
3 609 611 603
3 610 612 604
4 609 611 612 610
4 611 603 604 612
4 603 567 568 604
4 567 569 570 568
4 569 571 572 570
4 571 573 574 572
4 573 601 602 574
4 601 597 598 602
4 597 575 576 598
4 575 577 578 576
4 577 579 580 578
4 579 581 582 580
4 581 599 600 582
4 599 583 584 600
4 583 585 586 584
4 585 587 588 586
4 587 589 590 588
4 589 591 592 590
4 591 593 594 592
4 593 595 596 594
4 595 605 606 596
4 605 607 608 606
4 607 609 610 608
4 613 615 617 619
4 614 616 618 620
4 619 621 623 613
4 620 622 624 614
3 625 619 617
3 626 620 618
3 627 625 617
3 628 626 618
5 627 617 629 631 633
5 628 618 630 632 634
3 633 635 627
3 634 636 628
3 631 637 639
3 632 638 640
6 641 643 633 631 639 645
6 642 644 634 632 640 646
4 641 643 644 642
4 643 633 634 644
4 633 635 636 634
4 635 627 628 636
4 627 625 626 628
4 625 619 620 626
4 619 621 622 620
4 621 623 624 622
4 623 613 614 624
4 613 615 616 614
4 615 617 618 616
4 617 629 630 618
4 629 631 632 630
4 631 637 638 632
4 637 639 640 638
4 639 645 646 640
4 645 641 642 646
5 647 649 651 653 655
5 648 650 652 654 656
4 647 649 650 648
4 649 651 652 650
4 651 653 654 652
4 653 655 656 654
4 655 647 648 656
4 657 650 660 662
4 658 659 661 663
4 657 650 659 658
4 650 660 661 659
4 660 662 663 661
4 662 657 658 663
3 664 661 667
3 665 666 668
4 664 661 666 665
4 661 667 668 666
4 667 664 665 668
4 669 671 673 675
4 670 672 674 676
5 675 677 679 681 669
5 676 678 680 682 670
4 671 673 674 672
4 673 675 676 674
4 675 677 678 676
4 677 679 680 678
4 679 681 682 680
4 681 669 670 682
4 669 671 672 670
5 683 608 610 687 689
5 684 685 686 688 690
5 691 693 683 689 695
5 692 694 684 690 696
4 697 699 691 695
4 698 700 692 696
4 697 699 700 698
4 699 691 692 700
4 691 693 694 692
4 693 683 684 694
4 683 608 685 684
4 608 610 686 685
4 610 687 688 686
4 687 689 690 688
4 689 695 696 690
4 695 697 698 696
4 701 703 705 707
4 702 704 706 708
4 701 703 704 702
4 703 705 706 704
4 705 707 708 706
4 707 701 702 708
4 709 711 713 686
4 710 712 714 715
4 709 711 712 710
4 711 713 714 712
4 713 686 715 714
4 686 709 710 715
3 716 718 720
3 717 719 721
3 722 716 720
3 723 717 721
4 724 722 720 726
4 725 723 721 727
4 724 722 723 725
4 722 716 717 723
4 716 718 719 717
4 718 720 721 719
4 720 726 727 721
4 726 724 725 727
