ply
format ascii 1.0
element vertex 70
property double x
property double y
property double z
element face 57
property list uchar int vertex_indices
end_header
-43 -41 5
-43 -41 13
-44 -52 5
-44 -52 13
-35 -54 5
-35 -54 13
-32 -42 5
-32 -42 13
-35 -16 5
-35 -16 13
-33 -13 5
-33 -13 13
-32 -4 5
-32 -4 13
-34 3 5
-34 3 13
-42 3 5
-42 3 13
-46 -13 5
-46 -13 13
-46 -23 5
-46 -23 13
-29 -1 5
-29 -1 13
-31 2 5
-31 2 13
-34 -37 13
-34 -37 14
-39 -38 13
-39 -38 14
-42 -41 13
-42 -41 14
-41 -47 13
-41 -47 14
-33.5294 -48.1176 13
-33.5294 -48.1176 14
-38 -29 13
-38 -29 14
-39 -32 13
-39 -32 14
-36 -32 13
-36 -32 14
-36 -29 13
-36 -29 14
-39 -20 13
-39 -20 14
-40 -23 13
-40 -23 14
-37 -23 13
-37 -23 14
-37 -20 13
-37 -20 14
-38 -10 13
-38 -10 14
-39 -13 13
-39 -13 14
-38 -15 13
-38 -15 14
-36 -15 13
-36 -15 14
-36 -10 13
-36 -10 14
-38 -3 13
-38 -3 14
-37 -5 13
-37 -5 14
-34 -5 13
-34 -5 14
-34 -2 13
-34 -2 14
3 0 2 4
3 1 3 5
4 0 4 6 8
4 1 5 7 9
3 8 10 12
3 9 11 13
3 0 8 12
3 1 9 13
6 14 16 18 20 0 12
6 15 17 19 21 1 13
4 12 22 24 14
4 13 23 25 15
4 16 18 19 17
4 18 20 21 19
4 20 0 1 21
4 0 2 3 1
4 2 4 5 3
4 4 6 7 5
4 6 8 9 7
4 8 10 11 9
4 10 12 13 11
4 12 22 23 13
4 22 24 25 23
4 24 14 15 25
4 14 16 17 15
5 26 28 30 32 34
5 27 29 31 33 35
4 26 28 29 27
4 28 30 31 29
4 30 32 33 31
4 32 34 35 33
4 34 26 27 35
4 36 38 40 42
4 37 39 41 43
4 36 38 39 37
4 38 40 41 39
4 40 42 43 41
4 42 36 37 43
4 44 46 48 50
4 45 47 49 51
4 44 46 47 45
4 46 48 49 47
4 48 50 51 49
4 50 44 45 51
5 52 54 56 58 60
5 53 55 57 59 61
4 52 54 55 53
4 54 56 57 55
4 56 58 59 57
4 58 60 61 59
4 60 52 53 61
4 62 64 66 68
4 63 65 67 69
4 62 64 65 63
4 64 66 67 65
4 66 68 69 67
4 68 62 63 69
